<?xml version="1.0" encoding="UTF-8" standalone="no"?>
<!-- Created with Inkscape (http://www.inkscape.org/) -->
<svg id="svg2" xmlns:rdf="http://www.w3.org/1999/02/22-rdf-syntax-ns#" xmlns="http://www.w3.org/2000/svg" height="29.973" width="208.45" version="1.1" xmlns:cc="http://creativecommons.org/ns#" xmlns:dc="http://purl.org/dc/elements/1.1/">
<defs id="defs4">
<filter id="filter3951" color-interpolation-filters="sRGB">
<feGaussianBlur id="feGaussianBlur3953" stdDeviation="0.21163471"/>
</filter>
</defs>
<metadata id="metadata7">
<rdf:RDF>
<cc:Work rdf:about="">
<dc:format>image/svg+xml</dc:format>
<dc:type rdf:resource="http://purl.org/dc/dcmitype/StillImage"/>
<dc:title/>
</cc:Work>
</rdf:RDF>
</metadata>
<g id="layer1" font-size="40px" font-family="Sans" transform="translate(-50.069344,-32.229764)" font-style="normal" font-weight="normal">
<g id="text2985" style="letter-spacing:0px;word-spacing:0px;" transform="matrix(0.87124148,0,0,0.80774812,19.928839,9.1061761)" line-height="125%" fill="#9c9c9c">
<path id="path3028" d="m54.891,49.145c-0.32554-0.59895-0.81382-1.1393-1.4648-1.6211-0.65106-0.48176-1.3867-0.86588-2.207-1.1523-0.80731-0.29947-1.6537-0.52082-2.5391-0.66406-2.6302-0.39062-5.0846-1.2435-7.3633-2.5586-0.19532-0.10416-0.40365-0.32551-0.625-0.66406-0.22136-0.33853-0.33204-0.66405-0.33203-0.97656-0.000006-1.1458,0.1888-2.2917,0.56641-3.4375,0.39062-1.1588,0.88541-2.0638,1.4844-2.7148,0.96353-1.0807,2.6953-2.0247,5.1953-2.832,2.513-0.80727,5.3385-1.2109,8.4766-1.2109,1.875,0.000024,3.3203,0.14325,4.3359,0.42969,1.0286,0.28648,1.5429,0.72919,1.543,1.3281-0.000028,0.97658-0.13675,1.7318-0.41016,2.2656-0.26044,0.53387-0.5469,0.89195-0.85938,1.0742-0.2995,0.16929-0.83336,0.40366-1.6016,0.70312-0.82034,0.28648-1.5365,0.58595-2.1484,0.89844-0.59898,0.31252-1.1133,0.612-1.543,0.89844-0.42971,0.28647-0.69664,0.4297-0.80078,0.42969-0.13023,0.000016-0.19533-0.05207-0.19531-0.15625-0.00002-0.22134,0.22784-0.55337,0.68359-0.99609,0.46873-0.45571,1.0416-0.85285,1.7188-1.1914,0.71612-0.37759,1.0742-0.61847,1.0742-0.72266-0.000024-0.16925-0.39716-0.25389-1.1914-0.25391-2.4089,0.000019-4.6354,0.21486-6.6797,0.64453-2.0443,0.4297-3.6589,0.99611-4.8438,1.6992-1.1719,0.70314-1.7578,1.4193-1.7578,2.1484-0.000009,0.45574,0.24088,0.78126,0.72266,0.97656,0.49478,0.1823,1.5755,0.4948,3.2422,0.9375,1.6667,0.44272,3.1575,0.95053,4.4727,1.5234,1.888,0.8073,3.2877,1.6471,4.1992,2.5195,0.91144,0.8724,1.3672,1.849,1.3672,2.9297-0.000023,0.74219-0.18232,1.4909-0.54688,2.2461-0.35158,0.74219-0.87242,1.4258-1.5625,2.0508-0.69012,0.625-1.4844,1.1393-2.3828,1.543-0.76825,0.32552-1.7383,0.63151-2.9102,0.91797-1.1589,0.28646-2.4219,0.50781-3.7891,0.66406-1.3542,0.16927-2.6497,0.2539-3.8867,0.25391-2.2787-0.000002-4.1146-0.21485-5.5078-0.64453-1.3802-0.42969-2.0703-1.0807-2.0703-1.9531-0.000001-0.39062,0.23437-0.99609,0.70312-1.8164,0.46875-0.83333,1.0221-1.3932,1.6602-1.6797,0.55989-0.22135,1.1003-0.34505,1.6211-0.37109,0.52083-0.03906,0.78124,0.01954,0.78125,0.17578-0.000005,0.03907-0.01954,0.07813-0.05859,0.11719-0.03907,0.03907-0.08464,0.07162-0.13672,0.09766-0.05209,0.02605-0.10417,0.05209-0.15625,0.07813-0.26042,0.10417-0.47526,0.18881-0.64453,0.25391-0.15625,0.05209-0.28646,0.11068-0.39062,0.17578-0.09115,0.05209-0.13672,0.13021-0.13672,0.23438-0.000003,0.27344,1.3477,0.41016,4.043,0.41016,2.3437,0.000003,4.2643-0.08463,5.7617-0.25391,1.4974-0.16927,2.819-0.47526,3.9648-0.91797,1.1458-0.4427,2.1875-1.0547,3.125-1.8359"/>
<path id="path3030" d="m62.762,54.867c-0.22136,0-0.41016-0.08463-0.56641-0.25391-0.15625-0.16927-0.23438-0.40365-0.23438-0.70312-0.000002-0.23437,0.13672-0.65104,0.41016-1.25,0.28646-0.61198,0.63802-1.1523,1.0547-1.6211,0.42968-0.48177,0.87239-0.72265,1.3281-0.72266,0.55989,0.000004,0.83984,0.33204,0.83984,0.99609-0.000006,0.36459-0.14975,0.83985-0.44922,1.4258-0.29948,0.57292-0.67058,1.0742-1.1133,1.5039-0.44271,0.41667-0.86589,0.625-1.2695,0.625"/>
<path id="path3032" d="m70.476,41.195,0.35156-2.2852c0.11719-0.78123,0.32552-1.4193,0.625-1.9141,0.29948-0.49477,0.82682-1.0351,1.582-1.6211,0.74219-0.59894,1.901-1.4453,3.4766-2.5391,3.7891-2.6432,6.7383-3.9648,8.8477-3.9648,0.63801,0.000026,1.0872,0.13023,1.3477,0.39062,0.27342,0.26044,0.41014,0.71617,0.41016,1.3672-0.000014,0.45575-0.1758,1.0808-0.52734,1.875-0.33856,0.79429-0.97006,2.0508-1.8945,3.7695-0.91147,1.7188-1.7188,3.2617-2.4219,4.6289-0.57292,1.1198-1.224,2.3112-1.9531,3.5742-0.72917,1.25-1.2175,2.1094-1.4648,2.5781-0.2474,0.46876-0.3711,0.82032-0.37109,1.0547-0.000006,0.26042,0.08463,0.48829,0.25391,0.68359,0.16926,0.1823,0.3776,0.27344,0.625,0.27344,0.33854,0.000005,0.71614-0.18229,1.1328-0.54688,0.42968-0.36458,1.263-1.1523,2.5-2.3633,0.59895-0.59895,1.237-1.3086,1.9141-2.1289,0.69009-0.8203,1.543-1.875,2.5586-3.1641,1.0156-1.289,1.9531-2.487,2.8125-3.5938,0.53384-0.69009,1.0156-1.3086,1.4453-1.8555,0.42967-0.54686,0.79425-0.96352,1.0938-1.25,0.31248-0.29946,0.55988-0.4492,0.74219-0.44922,0.15623,0.000021,0.41014,0.19533,0.76172,0.58594l0.46875,0.60547c0.35154,0.49481,0.52732,0.85288,0.52734,1.0742-0.000022,0.26044-0.4883,1.2175-1.4648,2.8711-0.96356,1.6406-1.7839,3.0664-2.4609,4.2773-0.6771,1.1979-1.556,2.9362-2.6367,5.2148-1.0677,2.2656-2.0964,4.7852-3.0859,7.5586,2.6432-1.9922,4.4531-3.3203,5.4297-3.9844,0.97654-0.67708,1.6862-1.0156,2.1289-1.0156,0.29946,0.000004,0.4492,0.1237,0.44922,0.37109-0.000021,0.27344-0.14325,0.63151-0.42969,1.0742-0.28648,0.42969-0.67059,0.91146-1.1523,1.4453-0.48179,0.52083-1.211,1.276-2.1875,2.2656-0.96356,1.0026-2.0182,2.0833-3.1641,3.2422-0.70314,0.71614-1.3867,1.5495-2.0508,2.5-0.66407,0.95051-1.1784,1.6862-1.543,2.207-0.36459,0.52082-0.69662,0.8203-0.99609,0.89844-0.44272,0.1302-0.84636,0.03254-1.2109-0.29297-0.36459-0.32553-0.54688-0.83985-0.54688-1.543-0.000007-0.4948,0.24739-1.5169,0.74219-3.0664,0.5078-1.5495,1.2695-3.4766,2.2852-5.7812,0.59895-1.3802,1.2109-2.6823,1.8359-3.9062,0.62499-1.237,1.3411-2.5911,2.1484-4.0625,0.8203-1.4844,1.6211-2.8906,2.4023-4.2188,0.78123-1.3281,1.4453-2.4609,1.9922-3.3984-1.3021,1.7057-2.5977,3.3659-3.8867,4.9805-1.2761,1.6016-2.7083,3.2943-4.2969,5.0781-1.5755,1.7708-3.1706,3.431-4.7852,4.9805-0.70313,0.66406-1.2109,1.1133-1.5234,1.3477-0.29948,0.2474-0.69662,0.37109-1.1914,0.37109-0.3125-0.000001-0.61849-0.11068-0.91797-0.33203-0.28646-0.20833-0.52735-0.48177-0.72266-0.82031-0.19531-0.35156-0.29297-0.6901-0.29297-1.0156-0.000002-0.54687,0.07812-1.0286,0.23438-1.4453,0.16927-0.41666,0.45573-1.0417,0.85938-1.875,1.7708-3.5807,3.0599-6.0351,3.8672-7.3633,2.8906-4.6354,4.3359-7.2331,4.3359-7.793-0.000011-0.18227-0.06512-0.3255-0.19531-0.42969-0.13022-0.11717-0.29298-0.17576-0.48828-0.17578-0.36459,0.00002-0.80079,0.16278-1.3086,0.48828-0.50782,0.31252-1.1458,0.78127-1.9141,1.4062-0.76824,0.62502-1.7057,1.3737-2.8125,2.2461-1.0938,0.87241-2.2461,1.7057-3.457,2.5-0.48177,0.31251-1.0221,0.68361-1.6211,1.1133-0.61198,0.4297-0.96354,0.64454-1.0547,0.64453-0.18229,0.000012-0.27344-0.09113-0.27344-0.27344,0.000002-0.16926,0.03906-0.52733,0.11719-1.0742"/>
<path id="path3034" d="m98.23,54.867c-0.22136,0-0.41016-0.08463-0.56641-0.25391-0.15625-0.16927-0.23438-0.40365-0.23438-0.70312-0.000002-0.23437,0.13672-0.65104,0.41016-1.25,0.28646-0.61198,0.63802-1.1523,1.0547-1.6211,0.42968-0.48177,0.87239-0.72265,1.3281-0.72266,0.55989,0.000004,0.83984,0.33204,0.83985,0.99609-0.00001,0.36459-0.14975,0.83985-0.44922,1.4258-0.29949,0.57292-0.67058,1.0742-1.1133,1.5039-0.44271,0.41667-0.86589,0.625-1.2695,0.625"/>
<path id="path3036" d="m113.78,35.062,0-4.6289,2.8906,0,0,4.6289-0.48828,5.2539-1.7969,0-0.60547-5.2539"/>
<path id="path3038" d="m117.49,49.184,0-0.46875c3.3594-3.5417,5.6706-6.0221,6.9336-7.4414,0.28645-1.6015,0.97655-2.4023,2.0703-2.4023,0.27343,0.000016,0.5664,0.07814,0.87891,0.23438l0.11719,0.37109c-0.0521,0.15626-0.0781,0.37762-0.0781,0.66406-0.00001,0.24741,0.0911,0.70965,0.27344,1.3867,0.1953,0.66408,0.34504,1.224,0.44922,1.6797,0.10415,0.45574,0.15624,0.97006,0.15625,1.543-0.00001,0.85938-0.19533,1.6862-0.58594,2.4805-0.39063,0.78126-0.95704,1.5365-1.6992,2.2656-0.74219,0.71615-1.6992,1.4518-2.8711,2.207,0.46874,0.07813,0.83984,0.11719,1.1133,0.11719,0.53385,0.000003,1.1068-0.1302,1.7188-0.39062,0.62499-0.27343,1.2565-0.63151,1.8945-1.0742,0.65103-0.45572,1.4062-1.0417,2.2656-1.7578v1.3086c-1.6667,1.6276-3.1576,2.8646-4.4727,3.7109-1.3151,0.83333-2.4479,1.25-3.3984,1.25-1.224,0-2.3568-0.52083-3.3984-1.5625-0.61198-0.625-0.99609-1.224-1.1523-1.7969-0.14323-0.57291-0.21484-1.3477-0.21484-2.3242m7.2852-2.9883-0.35156-2.8516c-0.8073,0.91147-2.5326,2.6628-5.1758,5.2539,0.78125,0.16928,1.3151,0.39714,1.6016,0.68359,0.28646,0.28646,0.6901,0.83985,1.2109,1.6602,0.88541-0.36458,1.5625-0.85937,2.0312-1.4844,0.48176-0.63802,0.72265-1.5039,0.72266-2.5977-0.00001-0.1302-0.007-0.24739-0.0195-0.35156,0-0.10416-0.007-0.20832-0.0195-0.3125"/>
<path id="path3040" d="m142.72,51.625c0-0.29948,0.0651-0.71614,0.19531-1.25,0.13021-0.54687,0.30599-0.97005,0.52735-1.2695,0.55989-0.79426,1.0742-1.5234,1.543-2.1875,0.46874-0.66405,0.88541-1.237,1.25-1.7188,0.36457-0.48176,0.72916-0.91145,1.0938-1.2891,2.2266-2.4088,3.8216-4.2057,4.7852-5.3906,0.96353-1.1979,1.4453-2.0312,1.4453-2.5-0.00002-0.31248-0.14325-0.55337-0.42969-0.72266-0.28647-0.18227-0.66408-0.27342-1.1328-0.27344-0.96356,0.00002-2.1745,0.34507-3.6328,1.0352-1.4583,0.6771-3.1641,1.5625-5.1172,2.6562-1.9401,1.0938-3.0208,1.6406-3.2422,1.6406-0.35156,0.000015-0.52734-0.25389-0.52735-0.76172,0.00001-0.42967,0.13672-1.0416,0.41016-1.8359,0.20833-0.85936,0.37761-1.5234,0.50781-1.9922,0.13021-0.48175,0.34506-0.91144,0.64453-1.2891,0.3125-0.37758,0.82032-0.78774,1.5234-1.2305,0.71615-0.44269,1.8099-1.0482,3.2812-1.8164l0.19531,0.72266c1.224-0.49477,2.3763-0.87237,3.457-1.1328,1.0937-0.26039,2.0247-0.3906,2.793-0.39062,1.5104,0.000024,2.5781,0.26044,3.2031,0.78125,0.63801,0.50784,0.95702,1.6211,0.95703,3.3398-0.00001,0.93752-0.13673,1.7188-0.41016,2.3438-0.27345,0.62502-0.8073,1.4974-1.6016,2.6172-1.8099,2.6302-3.1706,4.4531-4.082,5.4688-2.6432,3.0208-3.9648,4.7852-3.9648,5.293-0.00001,0.28646,0.18879,0.42969,0.5664,0.42969,0.3125,0.000004,0.7552-0.22135,1.3281-0.66406,0.57291-0.4427,1.263-1.0807,2.0703-1.9141,0.80728-0.83333,1.9271-2.0247,3.3594-3.5742,1.5234-1.6406,2.806-3.0859,3.8476-4.3359,1.0547-1.263,1.9206-2.3372,2.5977-3.2227,0.67706-0.89842,1.0351-1.3802,1.0742-1.4453,0.7031-0.85936,1.4258-1.5625,2.168-2.1094,0.75518-0.55987,1.237-0.83982,1.4453-0.83984,0.15622,0.000022,0.33852,0.14325,0.54687,0.42969,0.20831,0.28648,0.38409,0.62502,0.52735,1.0156,0.15622,0.39064,0.23435,0.69012,0.23437,0.89844-0.00002,0.06512-0.15627,0.38413-0.46875,0.95703-0.31252,0.55991-0.65106,1.1459-1.0156,1.7578-0.36461,0.59898-0.95055,1.5235-1.7578,2.7734-1.7708,2.7474-3.125,5.0586-4.0625,6.9336-0.93751,1.862-1.4063,3.0859-1.4062,3.6719-0.00001,0.20834,0.0716,0.40365,0.21485,0.58594,0.15623,0.16927,0.31248,0.25391,0.46875,0.25391,0.20831,0.000003,0.58592-0.16276,1.1328-0.48828,0.54686-0.33854,1.1523-0.82031,1.8164-1.4453,0.87237-0.83333,1.6666-1.6992,2.3828-2.5977,0.71612-0.89843,1.4258-1.901,2.1289-3.0078s1.3281-2.1549,1.875-3.1445c0.54684-0.98957,1.1002-2.0312,1.6602-3.125l-0.33203-0.99609c-0.0521-0.15623-0.0781-0.35806-0.0781-0.60547-0.00003-0.19529,0.38408-0.8268,1.1523-1.8945,0.7682-1.0807,1.276-1.6211,1.5234-1.6211,0.2734,0.000022,0.50127,0.20184,0.68359,0.60547,0.19528,0.39064,0.29294,0.78778,0.29297,1.1914-0.00003,0.44273-0.20185,1.3281-0.60547,2.6562-0.39065,1.3151-1.0091,2.9102-1.8555,4.7852-0.83336,1.875-1.8685,3.7826-3.1055,5.7227-1.0677,1.6927-2.2136,3.1445-3.4375,4.3555-1.211,1.1979-2.3047,2.0898-3.2812,2.6758-0.97658,0.58594-1.6992,0.87891-2.168,0.87891-0.53387-0.000001-1.0938-0.23438-1.6797-0.70312-0.48179-0.41667-0.82684-0.78776-1.0352-1.1133-0.19533-0.33854-0.32553-0.70312-0.39062-1.0938-0.0651-0.39062-0.0977-0.84635-0.0977-1.3672-0.00001-1.1068,0.30597-2.4023,0.91797-3.8867,0.61196-1.4844,1.5234-3.3333,2.7344-5.5469-3.7891,4.6094-6.7253,7.9622-8.8086,10.059-2.0703,2.0964-3.5872,3.1445-4.5508,3.1445-0.63803,0-1.1784-0.3776-1.6211-1.1328-0.44271-0.76823-0.66406-1.6862-0.66406-2.7539"/>
<path id="path3042" d="m172.88,49.34,0,0.48828c0,0.76823,0.1888,1.3672,0.56641,1.7969,0.3776,0.42969,0.87239,0.64453,1.4844,0.64453,0.63802,0.000002,1.2956-0.14974,1.9727-0.44922,0.6901-0.29948,1.3737-0.69661,2.0508-1.1914,0.67707-0.49479,1.5039-1.1588,2.4805-1.9922v1.1914c-1.4714,1.7708-2.8516,3.1315-4.1406,4.082-1.2891,0.9375-2.5977,1.4062-3.9258,1.4062-1.1588-0.000001-2.0768-0.44922-2.7539-1.3477-0.67709-0.89844-1.0156-2.1289-1.0156-3.6914,0-1.3672,0.31901-2.6042,0.95703-3.7109,0.63802-1.1198,1.6797-2.2982,3.125-3.5352,0.98958-0.84634,1.9726-1.4844,2.9492-1.9141,0.97656-0.42967,1.849-0.64452,2.6172-0.64453,0.61197,0.000014,1.0937,0.14324,1.4453,0.42969,0.36457,0.27345,0.54687,0.69012,0.54688,1.25-0.00001,0.82032-0.306,1.6406-0.91797,2.4609-0.61199,0.8073-1.5495,1.6146-2.8125,2.4219-1.25,0.79428-2.793,1.5625-4.6289,2.3047m0.19531-1.2695c1.1719-0.45572,2.1745-1.0221,3.0078-1.6992,0.83332-0.67707,1.4453-1.3216,1.8359-1.9336,0.40364-0.62499,0.60546-1.0807,0.60547-1.3672-0.00001-0.29947-0.13672-0.44921-0.41015-0.44922-0.23439,0.000012-0.6185,0.14975-1.1524,0.44922-0.52084,0.29949-1.0547,0.69012-1.6016,1.1719-0.53386,0.48178-1.0156,1.0482-1.4453,1.6992-0.42969,0.65105-0.70964,1.3607-0.83985,2.1289"/>
<path id="path3044" d="m194.4,48.676,0,1.2695c-1.3542,0.85938-2.4219,1.2891-3.2031,1.2891-0.42969,0.000004-0.88542-0.07161-1.3672-0.21484-1.1719,1.4844-2.181,2.5716-3.0274,3.2617-0.83334,0.6901-1.6732,1.0352-2.5195,1.0352-0.97656-0.000001-1.7318-0.51432-2.2656-1.543-0.52084-1.0286-0.78125-2.3047-0.78125-3.8281,0-2.0703,0.625-4.3229,1.875-6.7578,1.25-2.4479,2.7539-4.7331,4.5117-6.8555,1.7708-2.1354,3.4831-3.8997,5.1367-5.293,1.6536-1.3932,2.7734-2.0898,3.3594-2.0898,0.55988,0.000026,0.83983,0.38414,0.83984,1.1523-0.00001,3.4115-4.375,9.362-13.125,17.852-0.026,0.23438-0.0391,0.69662-0.0391,1.3867,0,1.7969,0.48177,2.6953,1.4453,2.6953,0.3776,0.000002,0.75521-0.14974,1.1328-0.44922,0.39061-0.3125,0.98306-0.89843,1.7773-1.7578-0.31251-0.70312-0.46876-1.224-0.46875-1.5625-0.00001-0.71614,0.29296-1.4909,0.87891-2.3242,0.58593-0.83332,1.25-1.5495,1.9922-2.1484,0.7552-0.61197,1.3021-0.91796,1.6406-0.91797,0.53384,0.000012,0.80077,0.38413,0.80078,1.1523-0.00001,0.58595-0.15626,1.2891-0.46875,2.1094-0.29949,0.82032-0.7422,1.7578-1.3281,2.8125,0.22135,0.1823,0.39713,0.31902,0.52735,0.41016,0.1302,0.07813,0.32551,0.11719,0.58594,0.11719,0.59894,0.000005,1.2956-0.26692,2.0898-0.80078m-9.9219-2.9297c0.67708-0.58593,1.3542-1.276,2.0312-2.0703,0.6901-0.80728,1.6927-2.0377,3.0078-3.6914,1.263-1.5885,2.2526-2.9101,2.9688-3.9648,0.72915-1.0677,1.276-1.9531,1.6406-2.6562,0.36457-0.7031,0.54686-1.1849,0.54688-1.4453-0.00002-0.19529-0.0521-0.29294-0.15625-0.29297-0.28647,0.000024-0.88543,0.47528-1.7969,1.4258-0.89845,0.93752-1.9271,2.2266-3.0859,3.8672-1.6016,2.2656-2.7604,3.9714-3.4766,5.1172-0.71615,1.1458-1.276,2.3828-1.6797,3.7109"/>
<path id="path3046" d="m213.54,43.187,5.957-8.8867c-1.3542,0.0521-2.78,0.24742-4.2774,0.58594-1.4974,0.33856-2.78,0.70314-3.8476,1.0938-1.0677,0.37762-2.0248,0.74221-2.8711,1.0938-0.83333,0.33856-1.4323,0.57944-1.7969,0.72266-0.0911,0.000017-0.1823-0.03254-0.27344-0.09766-0.0911-0.06509-0.13672-0.14321-0.13672-0.23438,0-0.10415,0.29948-0.74217,0.89844-1.9141,0.61197-1.1719,1.3281-2.4284,2.1484-3.7695,4.5573-1.6276,8.5807-2.4414,12.07-2.4414,4.0364,0.000026,6.8359,0.8594,8.3984,2.5781,0.55987,0.59898,0.98955,1.3412,1.2891,2.2266,0.31247,0.87242,0.46872,1.7383,0.46875,2.5977-0.00003,1.9531-0.41018,3.7305-1.2305,5.332-0.80732,1.5886-1.9662,2.9688-3.4766,4.1406-1.5104,1.1719-3.2878,2.0703-5.332,2.6953-2.0443,0.61198-4.2839,0.91797-6.7188,0.91797-0.4297,0.000005-1.3086-0.07812-2.6367-0.23438l-1.7578,3.2031c0.18229,0.27344,0.27344,0.49479,0.27344,0.66406,0,0.40365-0.0911,0.74219-0.27344,1.0156-0.26042,0.39062-0.60547,0.90495-1.0352,1.543-0.42969,0.63802-0.72266,1.0612-0.87891,1.2695-0.14323,0.20833-0.3125,0.39062-0.50781,0.54688-0.18229,0.15625-0.36459,0.23437-0.54688,0.23438-0.3776-0.000003-0.61849-0.11719-0.72265-0.35156-0.10417-0.22136-0.15625-0.53386-0.15625-0.9375,0-0.57292,0.27994-1.4779,0.83984-2.7148,0.57292-1.25,1.4323-2.9036,2.5781-4.9609-0.61199-0.23437-1.0872-0.54036-1.4258-0.91797-0.33855-0.3776-0.50782-0.74869-0.50782-1.1133,0-0.80728,0.46224-1.556,1.3867-2.2461,0.92448-0.69009,2.2917-1.237,4.1016-1.6406m2.0312,0.52734-1.1133,1.875c0.49479,0.02605,0.93098,0.05209,1.3086,0.07813,0.39061,0.02605,0.71613,0.03907,0.97656,0.03906,2.2786,0.000009,4.2513-0.30598,5.918-0.91797,1.6797-0.61197,3.0078-1.3672,3.9844-2.2656,0.98956-0.91144,1.7057-1.8229,2.1484-2.7344,0.44269-0.91144,0.66404-1.6732,0.66406-2.2852-0.00002-0.84634-0.33856-1.5104-1.0156-1.9922-0.67711-0.48175-1.6537-0.80727-2.9297-0.97656-1.263-0.18227-2.8972-0.27342-4.9023-0.27344,0.026,0.14325,0.039,0.31903,0.0391,0.52734-0.00002,0.6771-0.35809,1.569-1.0742,2.6758l-3.3984,5.332,2.5586-0.29297c0.20832,0.000012,0.31248,0.09767,0.3125,0.29297-0.00002,0.16928-0.16929,0.28647-0.50782,0.35156l-2.9688,0.56641"/>
<path id="path3048" d="m231.96,45.141c1.9792-1.7969,3.8997-3.1315,5.7617-4.0039,1.862-0.87238,3.3008-1.3086,4.3164-1.3086,0.27342,0.000015,0.52733,0.1172,0.76172,0.35156,0.23436,0.22137,0.41665,0.48178,0.54687,0.78125,0.14322,0.29949,0.21483,0.52085,0.21485,0.66406-0.00002,0.23439-0.0912,0.41017-0.27344,0.52734-0.18231,0.10418-0.50132,0.23439-0.95703,0.39062,0.0911,0.20835,0.20832,0.47527,0.35156,0.80078,0.14322,0.32553,0.25389,0.59246,0.33203,0.80078,0.0781,0.19532,0.11717,0.3711,0.11719,0.52734-0.00002,0.31251-0.31903,0.89845-0.95703,1.7578-0.62502,0.84636-1.0677,1.4714-1.3281,1.875-0.24741,0.40365-0.3711,0.89844-0.37109,1.4844-0.00001,0.96355,0.44269,1.4453,1.3281,1.4453,0.91145,0.000004,2.3372-0.85286,4.2774-2.5586v1.1914c-3.2943,3.6589-5.6511,5.4883-7.0703,5.4883-0.50782,0-0.8724-0.16927-1.0938-0.50781-0.20834-0.32552-0.3125-0.8138-0.3125-1.4648,0-1.0286,0.37109-2.5195,1.1133-4.4727-1.901,2.1094-3.3138,3.6133-4.2383,4.5117-0.92448,0.88542-1.6862,1.3281-2.2852,1.3281-0.28646,0.000001-0.64454-0.2474-1.0742-0.74219-0.42969-0.49479-0.8138-1.1328-1.1523-1.9141-0.32553-0.79427-0.48829-1.6146-0.48829-2.4609,0-0.61197,0.0586-1.1198,0.17579-1.5234,0.11718-0.41666,0.34505-0.83984,0.68359-1.2695,0.33854-0.42968,0.8789-0.99608,1.6211-1.6992m9.3555-2.1484c-3.3854,1.5495-5.8008,2.8646-7.2461,3.9453-1.4323,1.0807-2.1484,2.194-2.1484,3.3398,0,0.41667,0.0716,0.76172,0.21484,1.0352,0.14323,0.26042,0.33854,0.39063,0.58594,0.39062,0.14323,0.000004,0.39713-0.09114,0.76172-0.27344,1.3672-0.80729,2.6172-1.8555,3.75-3.1445,1.1328-1.3021,2.4935-3.0664,4.082-5.293"/>
<path id="path3050" d="m261.45,49.945-6.4844,5.332c-1.8229,3.151-3.4831,5.5013-4.9805,7.0508-1.4974,1.5625-2.6107,2.3437-3.3398,2.3438-0.39062-0.000009-0.58593-0.2409-0.58593-0.72266,0-0.93751,0.47526-2.1354,1.4258-3.5938,0.3776-0.57292,0.80729-1.1328,1.2891-1.6797,0.49479-0.54688,0.95703-1.0221,1.3867-1.4258,0.4427-0.39063,1.0221-0.88542,1.7383-1.4844,0.71614-0.58594,1.2044-0.98958,1.4648-1.2109,1.3021-2.6562,2.2396-4.6875,2.8125-6.0938-1.224,1.3021-2.2917,2.3698-3.2031,3.2031-0.91147,0.83334-1.7513,1.4779-2.5195,1.9336-0.75522,0.44271-1.4388,0.66406-2.0508,0.66406-0.66407,0.000001-1.276-0.52734-1.8359-1.582-0.5599-1.0677-0.83985-2.1615-0.83985-3.2812,0-0.52083,0.11719-1.0677,0.35157-1.6406,0.24739-0.57291,0.625-1.1849,1.1328-1.8359,0.52083-0.65103,1.1784-1.3151,1.9727-1.9922,0.79426-0.69009,1.7252-1.3607,2.793-2.0117,2.0182-1.263,3.5872-1.8945,4.707-1.8945,0.83332,0.000015,1.25,0.306,1.25,0.91797-0.00002,0.84637-0.90496,1.6732-2.7148,2.4805-1.1068,0.48178-2.207,1.1198-3.3008,1.9141-1.0807,0.79428-1.9596,1.6406-2.6367,2.5391-0.66406,0.88542-0.99609,1.6862-0.99609,2.4023,0,0.35157,0.0846,0.63152,0.2539,0.83984,0.16927,0.20834,0.39063,0.3125,0.66407,0.3125,0.45572,0.000003,0.97655-0.20833,1.5625-0.625,0.58593-0.41666,1.4518-1.1523,2.5976-2.207,0.52083-0.48176,1.2109-1.2565,2.0703-2.3242,0.87238-1.0807,1.5885-1.901,2.1484-2.4609,0.57291-0.5729,1.0872-0.85936,1.543-0.85938,0.2604,0.000012,0.46874,0.08465,0.625,0.25391,0.16926,0.15626,0.25389,0.39064,0.25391,0.70312-0.00002,0.59897-0.2409,1.4714-0.72266,2.6172-0.46876,1.1328-1.3216,2.9948-2.5586,5.5859l4.7266-3.4375v1.2695"/>
<path id="path3052" d="m264.44,49.34,0,0.48828c0,0.76823,0.1888,1.3672,0.56641,1.7969,0.3776,0.42969,0.87239,0.64453,1.4844,0.64453,0.63802,0.000002,1.2956-0.14974,1.9727-0.44922,0.6901-0.29948,1.3737-0.69661,2.0508-1.1914,0.67707-0.49479,1.5039-1.1588,2.4805-1.9922v1.1914c-1.4714,1.7708-2.8516,3.1315-4.1406,4.082-1.2891,0.9375-2.5977,1.4062-3.9258,1.4062-1.1588-0.000001-2.0768-0.44922-2.7539-1.3477-0.67709-0.89844-1.0156-2.1289-1.0156-3.6914,0-1.3672,0.31901-2.6042,0.95703-3.7109,0.63802-1.1198,1.6797-2.2982,3.125-3.5352,0.98958-0.84634,1.9726-1.4844,2.9492-1.9141,0.97656-0.42967,1.849-0.64452,2.6172-0.64453,0.61197,0.000014,1.0937,0.14324,1.4453,0.42969,0.36457,0.27345,0.54687,0.69012,0.54688,1.25-0.00001,0.82032-0.306,1.6406-0.91797,2.4609-0.61199,0.8073-1.5495,1.6146-2.8125,2.4219-1.25,0.79428-2.793,1.5625-4.6289,2.3047m0.19531-1.2695c1.1719-0.45572,2.1745-1.0221,3.0078-1.6992,0.83332-0.67707,1.4453-1.3216,1.8359-1.9336,0.40364-0.62499,0.60546-1.0807,0.60547-1.3672-0.00001-0.29947-0.13672-0.44921-0.41015-0.44922-0.23439,0.000012-0.6185,0.14975-1.1524,0.44922-0.52084,0.29949-1.0547,0.69012-1.6016,1.1719-0.53386,0.48178-1.0156,1.0482-1.4453,1.6992-0.42969,0.65105-0.70964,1.3607-0.83985,2.1289"/>
</g>
<g id="text2985-0" style="letter-spacing:0px;word-spacing:0px;" line-height="125%" transform="matrix(0.87124148,0,0,0.80774812,20.232923,9.3194909)" filter="url(#filter3951)" fill="#FFF">
<path id="path3028-8" d="m54.891,49.145c-0.32554-0.59895-0.81382-1.1393-1.4648-1.6211-0.65106-0.48176-1.3867-0.86588-2.207-1.1523-0.80731-0.29947-1.6537-0.52082-2.5391-0.66406-2.6302-0.39062-5.0846-1.2435-7.3633-2.5586-0.19532-0.10416-0.40365-0.32551-0.625-0.66406-0.22136-0.33853-0.33204-0.66405-0.33203-0.97656-0.000006-1.1458,0.1888-2.2917,0.56641-3.4375,0.39062-1.1588,0.88541-2.0638,1.4844-2.7148,0.96353-1.0807,2.6953-2.0247,5.1953-2.832,2.513-0.80727,5.3385-1.2109,8.4766-1.2109,1.875,0.000024,3.3203,0.14325,4.3359,0.42969,1.0286,0.28648,1.5429,0.72919,1.543,1.3281-0.000028,0.97658-0.13675,1.7318-0.41016,2.2656-0.26044,0.53387-0.5469,0.89195-0.85938,1.0742-0.2995,0.16929-0.83336,0.40366-1.6016,0.70312-0.82034,0.28648-1.5365,0.58595-2.1484,0.89844-0.59898,0.31252-1.1133,0.612-1.543,0.89844-0.42971,0.28647-0.69664,0.4297-0.80078,0.42969-0.13023,0.000016-0.19533-0.05207-0.19531-0.15625-0.00002-0.22134,0.22784-0.55337,0.68359-0.99609,0.46873-0.45571,1.0416-0.85285,1.7188-1.1914,0.71612-0.37759,1.0742-0.61847,1.0742-0.72266-0.000024-0.16925-0.39716-0.25389-1.1914-0.25391-2.4089,0.000019-4.6354,0.21486-6.6797,0.64453-2.0443,0.4297-3.6589,0.99611-4.8438,1.6992-1.1719,0.70314-1.7578,1.4193-1.7578,2.1484-0.000009,0.45574,0.24088,0.78126,0.72266,0.97656,0.49478,0.1823,1.5755,0.4948,3.2422,0.9375,1.6667,0.44272,3.1575,0.95053,4.4727,1.5234,1.888,0.8073,3.2877,1.6471,4.1992,2.5195,0.91144,0.8724,1.3672,1.849,1.3672,2.9297-0.000023,0.74219-0.18232,1.4909-0.54688,2.2461-0.35158,0.74219-0.87242,1.4258-1.5625,2.0508-0.69012,0.625-1.4844,1.1393-2.3828,1.543-0.76825,0.32552-1.7383,0.63151-2.9102,0.91797-1.1589,0.28646-2.4219,0.50781-3.7891,0.66406-1.3542,0.16927-2.6497,0.2539-3.8867,0.25391-2.2787-0.000002-4.1146-0.21485-5.5078-0.64453-1.3802-0.42969-2.0703-1.0807-2.0703-1.9531-0.000001-0.39062,0.23437-0.99609,0.70312-1.8164,0.46875-0.83333,1.0221-1.3932,1.6602-1.6797,0.55989-0.22135,1.1003-0.34505,1.6211-0.37109,0.52083-0.03906,0.78124,0.01954,0.78125,0.17578-0.000005,0.03907-0.01954,0.07813-0.05859,0.11719-0.03907,0.03907-0.08464,0.07162-0.13672,0.09766-0.05209,0.02605-0.10417,0.05209-0.15625,0.07813-0.26042,0.10417-0.47526,0.18881-0.64453,0.25391-0.15625,0.05209-0.28646,0.11068-0.39062,0.17578-0.09115,0.05209-0.13672,0.13021-0.13672,0.23438-0.000003,0.27344,1.3477,0.41016,4.043,0.41016,2.3437,0.000003,4.2643-0.08463,5.7617-0.25391,1.4974-0.16927,2.819-0.47526,3.9648-0.91797,1.1458-0.4427,2.1875-1.0547,3.125-1.8359"/>
<path id="path3030-9" d="m62.762,54.867c-0.22136,0-0.41016-0.08463-0.56641-0.25391-0.15625-0.16927-0.23438-0.40365-0.23438-0.70312-0.000002-0.23437,0.13672-0.65104,0.41016-1.25,0.28646-0.61198,0.63802-1.1523,1.0547-1.6211,0.42968-0.48177,0.87239-0.72265,1.3281-0.72266,0.55989,0.000004,0.83984,0.33204,0.83984,0.99609-0.000006,0.36459-0.14975,0.83985-0.44922,1.4258-0.29948,0.57292-0.67058,1.0742-1.1133,1.5039-0.44271,0.41667-0.86589,0.625-1.2695,0.625"/>
<path id="path3032-5" d="m70.476,41.195,0.35156-2.2852c0.11719-0.78123,0.32552-1.4193,0.625-1.9141,0.29948-0.49477,0.82682-1.0351,1.582-1.6211,0.74219-0.59894,1.901-1.4453,3.4766-2.5391,3.7891-2.6432,6.7383-3.9648,8.8477-3.9648,0.63801,0.000026,1.0872,0.13023,1.3477,0.39062,0.27342,0.26044,0.41014,0.71617,0.41016,1.3672-0.000014,0.45575-0.1758,1.0808-0.52734,1.875-0.33856,0.79429-0.97006,2.0508-1.8945,3.7695-0.91147,1.7188-1.7188,3.2617-2.4219,4.6289-0.57292,1.1198-1.224,2.3112-1.9531,3.5742-0.72917,1.25-1.2175,2.1094-1.4648,2.5781-0.2474,0.46876-0.3711,0.82032-0.37109,1.0547-0.000006,0.26042,0.08463,0.48829,0.25391,0.68359,0.16926,0.1823,0.3776,0.27344,0.625,0.27344,0.33854,0.000005,0.71614-0.18229,1.1328-0.54688,0.42968-0.36458,1.263-1.1523,2.5-2.3633,0.59895-0.59895,1.237-1.3086,1.9141-2.1289,0.69009-0.8203,1.543-1.875,2.5586-3.1641,1.0156-1.289,1.9531-2.487,2.8125-3.5938,0.53384-0.69009,1.0156-1.3086,1.4453-1.8555,0.42967-0.54686,0.79425-0.96352,1.0938-1.25,0.31248-0.29946,0.55988-0.4492,0.74219-0.44922,0.15623,0.000021,0.41014,0.19533,0.76172,0.58594l0.46875,0.60547c0.35154,0.49481,0.52732,0.85288,0.52734,1.0742-0.000022,0.26044-0.4883,1.2175-1.4648,2.8711-0.96356,1.6406-1.7839,3.0664-2.4609,4.2773-0.6771,1.1979-1.556,2.9362-2.6367,5.2148-1.0677,2.2656-2.0964,4.7852-3.0859,7.5586,2.6432-1.9922,4.4531-3.3203,5.4297-3.9844,0.97654-0.67708,1.6862-1.0156,2.1289-1.0156,0.29946,0.000004,0.4492,0.1237,0.44922,0.37109-0.000021,0.27344-0.14325,0.63151-0.42969,1.0742-0.28648,0.42969-0.67059,0.91146-1.1523,1.4453-0.48179,0.52083-1.211,1.276-2.1875,2.2656-0.96356,1.0026-2.0182,2.0833-3.1641,3.2422-0.70314,0.71614-1.3867,1.5495-2.0508,2.5-0.66407,0.95051-1.1784,1.6862-1.543,2.207-0.36459,0.52082-0.69662,0.8203-0.99609,0.89844-0.44272,0.1302-0.84636,0.03254-1.2109-0.29297-0.36459-0.32553-0.54688-0.83985-0.54688-1.543-0.000007-0.4948,0.24739-1.5169,0.74219-3.0664,0.5078-1.5495,1.2695-3.4766,2.2852-5.7812,0.59895-1.3802,1.2109-2.6823,1.8359-3.9062,0.62499-1.237,1.3411-2.5911,2.1484-4.0625,0.8203-1.4844,1.6211-2.8906,2.4023-4.2188,0.78123-1.3281,1.4453-2.4609,1.9922-3.3984-1.3021,1.7057-2.5977,3.3659-3.8867,4.9805-1.2761,1.6016-2.7083,3.2943-4.2969,5.0781-1.5755,1.7708-3.1706,3.431-4.7852,4.9805-0.70313,0.66406-1.2109,1.1133-1.5234,1.3477-0.29948,0.2474-0.69662,0.37109-1.1914,0.37109-0.3125-0.000001-0.61849-0.11068-0.91797-0.33203-0.28646-0.20833-0.52735-0.48177-0.72266-0.82031-0.19531-0.35156-0.29297-0.6901-0.29297-1.0156-0.000002-0.54687,0.07812-1.0286,0.23438-1.4453,0.16927-0.41666,0.45573-1.0417,0.85938-1.875,1.7708-3.5807,3.0599-6.0351,3.8672-7.3633,2.8906-4.6354,4.3359-7.2331,4.3359-7.793-0.000011-0.18227-0.06512-0.3255-0.19531-0.42969-0.13022-0.11717-0.29298-0.17576-0.48828-0.17578-0.36459,0.00002-0.80079,0.16278-1.3086,0.48828-0.50782,0.31252-1.1458,0.78127-1.9141,1.4062-0.76824,0.62502-1.7057,1.3737-2.8125,2.2461-1.0938,0.87241-2.2461,1.7057-3.457,2.5-0.48177,0.31251-1.0221,0.68361-1.6211,1.1133-0.61198,0.4297-0.96354,0.64454-1.0547,0.64453-0.18229,0.000012-0.27344-0.09113-0.27344-0.27344,0.000002-0.16926,0.03906-0.52733,0.11719-1.0742"/>
<path id="path3034-7" d="m98.23,54.867c-0.22136,0-0.41016-0.08463-0.56641-0.25391-0.15625-0.16927-0.23438-0.40365-0.23438-0.70312-0.000002-0.23437,0.13672-0.65104,0.41016-1.25,0.28646-0.61198,0.63802-1.1523,1.0547-1.6211,0.42968-0.48177,0.87239-0.72265,1.3281-0.72266,0.55989,0.000004,0.83984,0.33204,0.83985,0.99609-0.00001,0.36459-0.14975,0.83985-0.44922,1.4258-0.29949,0.57292-0.67058,1.0742-1.1133,1.5039-0.44271,0.41667-0.86589,0.625-1.2695,0.625"/>
<path id="path3036-6" d="m113.78,35.062,0-4.6289,2.8906,0,0,4.6289-0.48828,5.2539-1.7969,0-0.60547-5.2539"/>
<path id="path3038-2" d="m117.49,49.184,0-0.46875c3.3594-3.5417,5.6706-6.0221,6.9336-7.4414,0.28645-1.6015,0.97655-2.4023,2.0703-2.4023,0.27343,0.000016,0.5664,0.07814,0.87891,0.23438l0.11719,0.37109c-0.0521,0.15626-0.0781,0.37762-0.0781,0.66406-0.00001,0.24741,0.0911,0.70965,0.27344,1.3867,0.1953,0.66408,0.34504,1.224,0.44922,1.6797,0.10415,0.45574,0.15624,0.97006,0.15625,1.543-0.00001,0.85938-0.19533,1.6862-0.58594,2.4805-0.39063,0.78126-0.95704,1.5365-1.6992,2.2656-0.74219,0.71615-1.6992,1.4518-2.8711,2.207,0.46874,0.07813,0.83984,0.11719,1.1133,0.11719,0.53385,0.000003,1.1068-0.1302,1.7188-0.39062,0.62499-0.27343,1.2565-0.63151,1.8945-1.0742,0.65103-0.45572,1.4062-1.0417,2.2656-1.7578v1.3086c-1.6667,1.6276-3.1576,2.8646-4.4727,3.7109-1.3151,0.83333-2.4479,1.25-3.3984,1.25-1.224,0-2.3568-0.52083-3.3984-1.5625-0.61198-0.625-0.99609-1.224-1.1523-1.7969-0.14323-0.57291-0.21484-1.3477-0.21484-2.3242m7.2852-2.9883-0.35156-2.8516c-0.8073,0.91147-2.5326,2.6628-5.1758,5.2539,0.78125,0.16928,1.3151,0.39714,1.6016,0.68359,0.28646,0.28646,0.6901,0.83985,1.2109,1.6602,0.88541-0.36458,1.5625-0.85937,2.0312-1.4844,0.48176-0.63802,0.72265-1.5039,0.72266-2.5977-0.00001-0.1302-0.007-0.24739-0.0195-0.35156,0-0.10416-0.007-0.20832-0.0195-0.3125"/>
<path id="path3040-5" d="m142.72,51.625c0-0.29948,0.0651-0.71614,0.19531-1.25,0.13021-0.54687,0.30599-0.97005,0.52735-1.2695,0.55989-0.79426,1.0742-1.5234,1.543-2.1875,0.46874-0.66405,0.88541-1.237,1.25-1.7188,0.36457-0.48176,0.72916-0.91145,1.0938-1.2891,2.2266-2.4088,3.8216-4.2057,4.7852-5.3906,0.96353-1.1979,1.4453-2.0312,1.4453-2.5-0.00002-0.31248-0.14325-0.55337-0.42969-0.72266-0.28647-0.18227-0.66408-0.27342-1.1328-0.27344-0.96356,0.00002-2.1745,0.34507-3.6328,1.0352-1.4583,0.6771-3.1641,1.5625-5.1172,2.6562-1.9401,1.0938-3.0208,1.6406-3.2422,1.6406-0.35156,0.000015-0.52734-0.25389-0.52735-0.76172,0.00001-0.42967,0.13672-1.0416,0.41016-1.8359,0.20833-0.85936,0.37761-1.5234,0.50781-1.9922,0.13021-0.48175,0.34506-0.91144,0.64453-1.2891,0.3125-0.37758,0.82032-0.78774,1.5234-1.2305,0.71615-0.44269,1.8099-1.0482,3.2812-1.8164l0.19531,0.72266c1.224-0.49477,2.3763-0.87237,3.457-1.1328,1.0937-0.26039,2.0247-0.3906,2.793-0.39062,1.5104,0.000024,2.5781,0.26044,3.2031,0.78125,0.63801,0.50784,0.95702,1.6211,0.95703,3.3398-0.00001,0.93752-0.13673,1.7188-0.41016,2.3438-0.27345,0.62502-0.8073,1.4974-1.6016,2.6172-1.8099,2.6302-3.1706,4.4531-4.082,5.4688-2.6432,3.0208-3.9648,4.7852-3.9648,5.293-0.00001,0.28646,0.18879,0.42969,0.5664,0.42969,0.3125,0.000004,0.7552-0.22135,1.3281-0.66406,0.57291-0.4427,1.263-1.0807,2.0703-1.9141,0.80728-0.83333,1.9271-2.0247,3.3594-3.5742,1.5234-1.6406,2.806-3.0859,3.8476-4.3359,1.0547-1.263,1.9206-2.3372,2.5977-3.2227,0.67706-0.89842,1.0351-1.3802,1.0742-1.4453,0.7031-0.85936,1.4258-1.5625,2.168-2.1094,0.75518-0.55987,1.237-0.83982,1.4453-0.83984,0.15622,0.000022,0.33852,0.14325,0.54687,0.42969,0.20831,0.28648,0.38409,0.62502,0.52735,1.0156,0.15622,0.39064,0.23435,0.69012,0.23437,0.89844-0.00002,0.06512-0.15627,0.38413-0.46875,0.95703-0.31252,0.55991-0.65106,1.1459-1.0156,1.7578-0.36461,0.59898-0.95055,1.5235-1.7578,2.7734-1.7708,2.7474-3.125,5.0586-4.0625,6.9336-0.93751,1.862-1.4063,3.0859-1.4062,3.6719-0.00001,0.20834,0.0716,0.40365,0.21485,0.58594,0.15623,0.16927,0.31248,0.25391,0.46875,0.25391,0.20831,0.000003,0.58592-0.16276,1.1328-0.48828,0.54686-0.33854,1.1523-0.82031,1.8164-1.4453,0.87237-0.83333,1.6666-1.6992,2.3828-2.5977,0.71612-0.89843,1.4258-1.901,2.1289-3.0078s1.3281-2.1549,1.875-3.1445c0.54684-0.98957,1.1002-2.0312,1.6602-3.125l-0.33203-0.99609c-0.0521-0.15623-0.0781-0.35806-0.0781-0.60547-0.00003-0.19529,0.38408-0.8268,1.1523-1.8945,0.7682-1.0807,1.276-1.6211,1.5234-1.6211,0.2734,0.000022,0.50127,0.20184,0.68359,0.60547,0.19528,0.39064,0.29294,0.78778,0.29297,1.1914-0.00003,0.44273-0.20185,1.3281-0.60547,2.6562-0.39065,1.3151-1.0091,2.9102-1.8555,4.7852-0.83336,1.875-1.8685,3.7826-3.1055,5.7227-1.0677,1.6927-2.2136,3.1445-3.4375,4.3555-1.211,1.1979-2.3047,2.0898-3.2812,2.6758-0.97658,0.58594-1.6992,0.87891-2.168,0.87891-0.53387-0.000001-1.0938-0.23438-1.6797-0.70312-0.48179-0.41667-0.82684-0.78776-1.0352-1.1133-0.19533-0.33854-0.32553-0.70312-0.39062-1.0938-0.0651-0.39062-0.0977-0.84635-0.0977-1.3672-0.00001-1.1068,0.30597-2.4023,0.91797-3.8867,0.61196-1.4844,1.5234-3.3333,2.7344-5.5469-3.7891,4.6094-6.7253,7.9622-8.8086,10.059-2.0703,2.0964-3.5872,3.1445-4.5508,3.1445-0.63803,0-1.1784-0.3776-1.6211-1.1328-0.44271-0.76823-0.66406-1.6862-0.66406-2.7539"/>
<path id="path3042-4" d="m172.88,49.34,0,0.48828c0,0.76823,0.1888,1.3672,0.56641,1.7969,0.3776,0.42969,0.87239,0.64453,1.4844,0.64453,0.63802,0.000002,1.2956-0.14974,1.9727-0.44922,0.6901-0.29948,1.3737-0.69661,2.0508-1.1914,0.67707-0.49479,1.5039-1.1588,2.4805-1.9922v1.1914c-1.4714,1.7708-2.8516,3.1315-4.1406,4.082-1.2891,0.9375-2.5977,1.4062-3.9258,1.4062-1.1588-0.000001-2.0768-0.44922-2.7539-1.3477-0.67709-0.89844-1.0156-2.1289-1.0156-3.6914,0-1.3672,0.31901-2.6042,0.95703-3.7109,0.63802-1.1198,1.6797-2.2982,3.125-3.5352,0.98958-0.84634,1.9726-1.4844,2.9492-1.9141,0.97656-0.42967,1.849-0.64452,2.6172-0.64453,0.61197,0.000014,1.0937,0.14324,1.4453,0.42969,0.36457,0.27345,0.54687,0.69012,0.54688,1.25-0.00001,0.82032-0.306,1.6406-0.91797,2.4609-0.61199,0.8073-1.5495,1.6146-2.8125,2.4219-1.25,0.79428-2.793,1.5625-4.6289,2.3047m0.19531-1.2695c1.1719-0.45572,2.1745-1.0221,3.0078-1.6992,0.83332-0.67707,1.4453-1.3216,1.8359-1.9336,0.40364-0.62499,0.60546-1.0807,0.60547-1.3672-0.00001-0.29947-0.13672-0.44921-0.41015-0.44922-0.23439,0.000012-0.6185,0.14975-1.1524,0.44922-0.52084,0.29949-1.0547,0.69012-1.6016,1.1719-0.53386,0.48178-1.0156,1.0482-1.4453,1.6992-0.42969,0.65105-0.70964,1.3607-0.83985,2.1289"/>
<path id="path3044-3" d="m194.4,48.676,0,1.2695c-1.3542,0.85938-2.4219,1.2891-3.2031,1.2891-0.42969,0.000004-0.88542-0.07161-1.3672-0.21484-1.1719,1.4844-2.181,2.5716-3.0274,3.2617-0.83334,0.6901-1.6732,1.0352-2.5195,1.0352-0.97656-0.000001-1.7318-0.51432-2.2656-1.543-0.52084-1.0286-0.78125-2.3047-0.78125-3.8281,0-2.0703,0.625-4.3229,1.875-6.7578,1.25-2.4479,2.7539-4.7331,4.5117-6.8555,1.7708-2.1354,3.4831-3.8997,5.1367-5.293,1.6536-1.3932,2.7734-2.0898,3.3594-2.0898,0.55988,0.000026,0.83983,0.38414,0.83984,1.1523-0.00001,3.4115-4.375,9.362-13.125,17.852-0.026,0.23438-0.0391,0.69662-0.0391,1.3867,0,1.7969,0.48177,2.6953,1.4453,2.6953,0.3776,0.000002,0.75521-0.14974,1.1328-0.44922,0.39061-0.3125,0.98306-0.89843,1.7773-1.7578-0.31251-0.70312-0.46876-1.224-0.46875-1.5625-0.00001-0.71614,0.29296-1.4909,0.87891-2.3242,0.58593-0.83332,1.25-1.5495,1.9922-2.1484,0.7552-0.61197,1.3021-0.91796,1.6406-0.91797,0.53384,0.000012,0.80077,0.38413,0.80078,1.1523-0.00001,0.58595-0.15626,1.2891-0.46875,2.1094-0.29949,0.82032-0.7422,1.7578-1.3281,2.8125,0.22135,0.1823,0.39713,0.31902,0.52735,0.41016,0.1302,0.07813,0.32551,0.11719,0.58594,0.11719,0.59894,0.000005,1.2956-0.26692,2.0898-0.80078m-9.9219-2.9297c0.67708-0.58593,1.3542-1.276,2.0312-2.0703,0.6901-0.80728,1.6927-2.0377,3.0078-3.6914,1.263-1.5885,2.2526-2.9101,2.9688-3.9648,0.72915-1.0677,1.276-1.9531,1.6406-2.6562,0.36457-0.7031,0.54686-1.1849,0.54688-1.4453-0.00002-0.19529-0.0521-0.29294-0.15625-0.29297-0.28647,0.000024-0.88543,0.47528-1.7969,1.4258-0.89845,0.93752-1.9271,2.2266-3.0859,3.8672-1.6016,2.2656-2.7604,3.9714-3.4766,5.1172-0.71615,1.1458-1.276,2.3828-1.6797,3.7109"/>
<path id="path3046-2" d="m213.54,43.187,5.957-8.8867c-1.3542,0.0521-2.78,0.24742-4.2774,0.58594-1.4974,0.33856-2.78,0.70314-3.8476,1.0938-1.0677,0.37762-2.0248,0.74221-2.8711,1.0938-0.83333,0.33856-1.4323,0.57944-1.7969,0.72266-0.0911,0.000017-0.1823-0.03254-0.27344-0.09766-0.0911-0.06509-0.13672-0.14321-0.13672-0.23438,0-0.10415,0.29948-0.74217,0.89844-1.9141,0.61197-1.1719,1.3281-2.4284,2.1484-3.7695,4.5573-1.6276,8.5807-2.4414,12.07-2.4414,4.0364,0.000026,6.8359,0.8594,8.3984,2.5781,0.55987,0.59898,0.98955,1.3412,1.2891,2.2266,0.31247,0.87242,0.46872,1.7383,0.46875,2.5977-0.00003,1.9531-0.41018,3.7305-1.2305,5.332-0.80732,1.5886-1.9662,2.9688-3.4766,4.1406-1.5104,1.1719-3.2878,2.0703-5.332,2.6953-2.0443,0.61198-4.2839,0.91797-6.7188,0.91797-0.4297,0.000005-1.3086-0.07812-2.6367-0.23438l-1.7578,3.2031c0.18229,0.27344,0.27344,0.49479,0.27344,0.66406,0,0.40365-0.0911,0.74219-0.27344,1.0156-0.26042,0.39062-0.60547,0.90495-1.0352,1.543-0.42969,0.63802-0.72266,1.0612-0.87891,1.2695-0.14323,0.20833-0.3125,0.39062-0.50781,0.54688-0.18229,0.15625-0.36459,0.23437-0.54688,0.23438-0.3776-0.000003-0.61849-0.11719-0.72265-0.35156-0.10417-0.22136-0.15625-0.53386-0.15625-0.9375,0-0.57292,0.27994-1.4779,0.83984-2.7148,0.57292-1.25,1.4323-2.9036,2.5781-4.9609-0.61199-0.23437-1.0872-0.54036-1.4258-0.91797-0.33855-0.3776-0.50782-0.74869-0.50782-1.1133,0-0.80728,0.46224-1.556,1.3867-2.2461,0.92448-0.69009,2.2917-1.237,4.1016-1.6406m2.0312,0.52734-1.1133,1.875c0.49479,0.02605,0.93098,0.05209,1.3086,0.07813,0.39061,0.02605,0.71613,0.03907,0.97656,0.03906,2.2786,0.000009,4.2513-0.30598,5.918-0.91797,1.6797-0.61197,3.0078-1.3672,3.9844-2.2656,0.98956-0.91144,1.7057-1.8229,2.1484-2.7344,0.44269-0.91144,0.66404-1.6732,0.66406-2.2852-0.00002-0.84634-0.33856-1.5104-1.0156-1.9922-0.67711-0.48175-1.6537-0.80727-2.9297-0.97656-1.263-0.18227-2.8972-0.27342-4.9023-0.27344,0.026,0.14325,0.039,0.31903,0.0391,0.52734-0.00002,0.6771-0.35809,1.569-1.0742,2.6758l-3.3984,5.332,2.5586-0.29297c0.20832,0.000012,0.31248,0.09767,0.3125,0.29297-0.00002,0.16928-0.16929,0.28647-0.50782,0.35156l-2.9688,0.56641"/>
<path id="path3048-1" d="m231.96,45.141c1.9792-1.7969,3.8997-3.1315,5.7617-4.0039,1.862-0.87238,3.3008-1.3086,4.3164-1.3086,0.27342,0.000015,0.52733,0.1172,0.76172,0.35156,0.23436,0.22137,0.41665,0.48178,0.54687,0.78125,0.14322,0.29949,0.21483,0.52085,0.21485,0.66406-0.00002,0.23439-0.0912,0.41017-0.27344,0.52734-0.18231,0.10418-0.50132,0.23439-0.95703,0.39062,0.0911,0.20835,0.20832,0.47527,0.35156,0.80078,0.14322,0.32553,0.25389,0.59246,0.33203,0.80078,0.0781,0.19532,0.11717,0.3711,0.11719,0.52734-0.00002,0.31251-0.31903,0.89845-0.95703,1.7578-0.62502,0.84636-1.0677,1.4714-1.3281,1.875-0.24741,0.40365-0.3711,0.89844-0.37109,1.4844-0.00001,0.96355,0.44269,1.4453,1.3281,1.4453,0.91145,0.000004,2.3372-0.85286,4.2774-2.5586v1.1914c-3.2943,3.6589-5.6511,5.4883-7.0703,5.4883-0.50782,0-0.8724-0.16927-1.0938-0.50781-0.20834-0.32552-0.3125-0.8138-0.3125-1.4648,0-1.0286,0.37109-2.5195,1.1133-4.4727-1.901,2.1094-3.3138,3.6133-4.2383,4.5117-0.92448,0.88542-1.6862,1.3281-2.2852,1.3281-0.28646,0.000001-0.64454-0.2474-1.0742-0.74219-0.42969-0.49479-0.8138-1.1328-1.1523-1.9141-0.32553-0.79427-0.48829-1.6146-0.48829-2.4609,0-0.61197,0.0586-1.1198,0.17579-1.5234,0.11718-0.41666,0.34505-0.83984,0.68359-1.2695,0.33854-0.42968,0.8789-0.99608,1.6211-1.6992m9.3555-2.1484c-3.3854,1.5495-5.8008,2.8646-7.2461,3.9453-1.4323,1.0807-2.1484,2.194-2.1484,3.3398,0,0.41667,0.0716,0.76172,0.21484,1.0352,0.14323,0.26042,0.33854,0.39063,0.58594,0.39062,0.14323,0.000004,0.39713-0.09114,0.76172-0.27344,1.3672-0.80729,2.6172-1.8555,3.75-3.1445,1.1328-1.3021,2.4935-3.0664,4.082-5.293"/>
<path id="path3050-2" d="m261.45,49.945-6.4844,5.332c-1.8229,3.151-3.4831,5.5013-4.9805,7.0508-1.4974,1.5625-2.6107,2.3437-3.3398,2.3438-0.39062-0.000009-0.58593-0.2409-0.58593-0.72266,0-0.93751,0.47526-2.1354,1.4258-3.5938,0.3776-0.57292,0.80729-1.1328,1.2891-1.6797,0.49479-0.54688,0.95703-1.0221,1.3867-1.4258,0.4427-0.39063,1.0221-0.88542,1.7383-1.4844,0.71614-0.58594,1.2044-0.98958,1.4648-1.2109,1.3021-2.6562,2.2396-4.6875,2.8125-6.0938-1.224,1.3021-2.2917,2.3698-3.2031,3.2031-0.91147,0.83334-1.7513,1.4779-2.5195,1.9336-0.75522,0.44271-1.4388,0.66406-2.0508,0.66406-0.66407,0.000001-1.276-0.52734-1.8359-1.582-0.5599-1.0677-0.83985-2.1615-0.83985-3.2812,0-0.52083,0.11719-1.0677,0.35157-1.6406,0.24739-0.57291,0.625-1.1849,1.1328-1.8359,0.52083-0.65103,1.1784-1.3151,1.9727-1.9922,0.79426-0.69009,1.7252-1.3607,2.793-2.0117,2.0182-1.263,3.5872-1.8945,4.707-1.8945,0.83332,0.000015,1.25,0.306,1.25,0.91797-0.00002,0.84637-0.90496,1.6732-2.7148,2.4805-1.1068,0.48178-2.207,1.1198-3.3008,1.9141-1.0807,0.79428-1.9596,1.6406-2.6367,2.5391-0.66406,0.88542-0.99609,1.6862-0.99609,2.4023,0,0.35157,0.0846,0.63152,0.2539,0.83984,0.16927,0.20834,0.39063,0.3125,0.66407,0.3125,0.45572,0.000003,0.97655-0.20833,1.5625-0.625,0.58593-0.41666,1.4518-1.1523,2.5976-2.207,0.52083-0.48176,1.2109-1.2565,2.0703-2.3242,0.87238-1.0807,1.5885-1.901,2.1484-2.4609,0.57291-0.5729,1.0872-0.85936,1.543-0.85938,0.2604,0.000012,0.46874,0.08465,0.625,0.25391,0.16926,0.15626,0.25389,0.39064,0.25391,0.70312-0.00002,0.59897-0.2409,1.4714-0.72266,2.6172-0.46876,1.1328-1.3216,2.9948-2.5586,5.5859l4.7266-3.4375v1.2695"/>
<path id="path3052-6" d="m264.44,49.34,0,0.48828c0,0.76823,0.1888,1.3672,0.56641,1.7969,0.3776,0.42969,0.87239,0.64453,1.4844,0.64453,0.63802,0.000002,1.2956-0.14974,1.9727-0.44922,0.6901-0.29948,1.3737-0.69661,2.0508-1.1914,0.67707-0.49479,1.5039-1.1588,2.4805-1.9922v1.1914c-1.4714,1.7708-2.8516,3.1315-4.1406,4.082-1.2891,0.9375-2.5977,1.4062-3.9258,1.4062-1.1588-0.000001-2.0768-0.44922-2.7539-1.3477-0.67709-0.89844-1.0156-2.1289-1.0156-3.6914,0-1.3672,0.31901-2.6042,0.95703-3.7109,0.63802-1.1198,1.6797-2.2982,3.125-3.5352,0.98958-0.84634,1.9726-1.4844,2.9492-1.9141,0.97656-0.42967,1.849-0.64452,2.6172-0.64453,0.61197,0.000014,1.0937,0.14324,1.4453,0.42969,0.36457,0.27345,0.54687,0.69012,0.54688,1.25-0.00001,0.82032-0.306,1.6406-0.91797,2.4609-0.61199,0.8073-1.5495,1.6146-2.8125,2.4219-1.25,0.79428-2.793,1.5625-4.6289,2.3047m0.19531-1.2695c1.1719-0.45572,2.1745-1.0221,3.0078-1.6992,0.83332-0.67707,1.4453-1.3216,1.8359-1.9336,0.40364-0.62499,0.60546-1.0807,0.60547-1.3672-0.00001-0.29947-0.13672-0.44921-0.41015-0.44922-0.23439,0.000012-0.6185,0.14975-1.1524,0.44922-0.52084,0.29949-1.0547,0.69012-1.6016,1.1719-0.53386,0.48178-1.0156,1.0482-1.4453,1.6992-0.42969,0.65105-0.70964,1.3607-0.83985,2.1289"/>
</g>
</g>
</svg>
