<?xml version="1.0" encoding="UTF-8"?>
<svg xmlns="http://www.w3.org/2000/svg" xmlns:xlink="http://www.w3.org/1999/xlink" version="1.1" width="100mm" height="60mm" viewBox="0 0 100 60" style="stroke:black;fill:black" stroke-width="0.5">
<g font-family="Helvetic,Arial,sans" stroke-width="0.3" font-size="3.88" stroke="none" fill="#000000">
  <g class="plotroot xscalable">
    <g font-family="'PT Sans','Helvetica Neue','Helvetica',sans-serif" font-size="3.18" stroke="none" class="guide ylabels" fill="#4C404B">
      <text x="26.88" y="27.64" text-anchor="end" style="dominant-baseline:central">5.0×10<tspan style="dominant-baseline:inherit" dy="-1ex">4</tspan></text>
      <text x="26.88" y="5.97" text-anchor="end" style="dominant-baseline:central">1.5×10<tspan style="dominant-baseline:inherit" dy="-1ex">5</tspan></text>
      <text x="26.88" y="16.8" text-anchor="end" style="dominant-baseline:central">1.0×10<tspan style="dominant-baseline:inherit" dy="-1ex">5</tspan></text>
      <text x="26.88" y="38.47" text-anchor="end" style="dominant-baseline:central">0</text>
    </g>
    <g font-family="'PT Sans','Helvetica Neue','Helvetica',sans-serif" font-size="3.18" stroke="none" class="guide xlabels" fill="#4C404B">
      <text x="77.27" y="44.74" text-anchor="middle">1</text>
      <text x="29.78" y="44.74" text-anchor="middle">-2</text>
      <text x="45.61" y="44.74" text-anchor="middle">-1</text>
      <text x="61.44" y="44.74" text-anchor="middle">0</text>
      <text x="93.1" y="44.74" text-anchor="middle">2</text>
    </g>
    <g font-family="'PT Sans','Helvetica Neue','Helvetica',sans-serif" font-size="3.88" stroke="none" fill="#362A35">
      <text x="61.44" y="53" text-anchor="middle">x</text>
    </g>
    <g>
      <g clip-path="url(#clippath1)">
        <g stroke="#F1F1F5" class="guide background" fill="#FAFAFA" opacity="1">
          <path d="M27.88,5 L 95 5 95 39.44 27.88 39.44 z" />
        </g>
        <g stroke-width="0.2" stroke="#F0F0F3" class="guide ygridlines xfixed">
          <path d="M27.88,5.97 L 95 5.97" />
          <path d="M27.88,81.79 L 95 81.79" />
          <path d="M27.88,16.8 L 95 16.8" />
          <path d="M27.88,-37.35 L 95 -37.35" />
          <path d="M27.88,38.47 L 95 38.47" />
          <path d="M27.88,-15.69 L 95 -15.69" />
          <path d="M27.88,-26.52 L 95 -26.52" />
          <path d="M27.88,70.96 L 95 70.96" />
          <path d="M27.88,60.13 L 95 60.13" />
          <path d="M27.88,49.3 L 95 49.3" />
          <path d="M27.88,-4.86 L 95 -4.86" />
          <path d="M27.88,27.64 L 95 27.64" />
        </g>
        <g stroke-width="0.2" stroke="#F0F0F3" class="guide xgridlines yfixed">
          <path d="M-1.88,5 L -1.88 39.44" />
          <path d="M140.59,5 L 140.59 39.44" />
          <path d="M45.61,5 L 45.61 39.44" />
          <path d="M156.42,5 L 156.42 39.44" />
          <path d="M13.95,5 L 13.95 39.44" />
          <path d="M61.44,5 L 61.44 39.44" />
          <path d="M93.1,5 L 93.1 39.44" />
          <path d="M-33.54,5 L -33.54 39.44" />
          <path d="M-49.37,5 L -49.37 39.44" />
          <path d="M172.25,5 L 172.25 39.44" />
          <path d="M-17.71,5 L -17.71 39.44" />
          <path d="M124.76,5 L 124.76 39.44" />
          <path d="M108.93,5 L 108.93 39.44" />
          <path d="M29.78,5 L 29.78 39.44" />
          <path d="M77.27,5 L 77.27 39.44" />
        </g>
      </g>
      <g clip-path="url(#clippath2)">
        <g class="plotpanel">
          <g stroke="none" fill="#00BFFF" shape-rendering="crispEdges">
            <g class="geometry" id="id29">
              <path d="M86.49,38.47 L 88.17 38.47 88.17 37.62 86.49 37.62 z" />
            </g>
            <g class="geometry" id="id27">
              <path d="M83.12,38.47 L 84.81 38.47 84.81 34.2 83.12 34.2 z" />
            </g>
            <g class="geometry" id="id25">
              <path d="M79.76,38.47 L 81.44 38.47 81.44 24.73 79.76 24.73 z" />
            </g>
            <g class="geometry" id="id23">
              <path d="M76.4,38.47 L 78.08 38.47 78.08 22.54 76.4 22.54 z" />
            </g>
            <g class="geometry" id="id21">
              <path d="M73.04,38.47 L 74.72 38.47 74.72 16.25 73.04 16.25 z" />
            </g>
            <g class="geometry" id="id19">
              <path d="M69.67,38.47 L 71.36 38.47 71.36 14.95 69.67 14.95 z" />
            </g>
            <g class="geometry" id="id17">
              <path d="M66.31,38.47 L 67.99 38.47 67.99 15.04 66.31 15.04 z" />
            </g>
            <g class="geometry" id="id15">
              <path d="M62.95,38.47 L 64.63 38.47 64.63 13.77 62.95 13.77 z" />
            </g>
            <g class="geometry" id="id13">
              <path d="M59.59,38.47 L 61.27 38.47 61.27 14.05 59.59 14.05 z" />
            </g>
            <g class="geometry" id="id11">
              <path d="M56.23,38.47 L 57.91 38.47 57.91 13.64 56.23 13.64 z" />
            </g>
            <g class="geometry" id="id9">
              <path d="M52.86,38.47 L 54.54 38.47 54.54 14.49 52.86 14.49 z" />
            </g>
            <g class="geometry" id="id7">
              <path d="M49.5,38.47 L 51.18 38.47 51.18 15.56 49.5 15.56 z" />
            </g>
            <g class="geometry" id="id5">
              <path d="M46.14,38.47 L 47.82 38.47 47.82 18.35 46.14 18.35 z" />
            </g>
            <g class="geometry" id="id3">
              <path d="M42.78,38.47 L 44.46 38.47 44.46 23.44 42.78 23.44 z" />
            </g>
            <g class="geometry" id="id1">
              <path d="M39.41,38.47 L 41.09 38.47 41.09 30.55 39.41 30.55 z" />
            </g>
            <g class="geometry" id="id0">
              <path d="M37.73,38.47 L 39.41 38.47 39.41 36.69 37.73 36.69 z" />
            </g>
            <g class="geometry" id="id2">
              <path d="M41.09,38.47 L 42.78 38.47 42.78 23.41 41.09 23.41 z" />
            </g>
            <g class="geometry" id="id4">
              <path d="M44.46,38.47 L 46.14 38.47 46.14 21.35 44.46 21.35 z" />
            </g>
            <g class="geometry" id="id6">
              <path d="M47.82,38.47 L 49.5 38.47 49.5 17.6 47.82 17.6 z" />
            </g>
            <g class="geometry" id="id8">
              <path d="M51.18,38.47 L 52.86 38.47 52.86 16.1 51.18 16.1 z" />
            </g>
            <g class="geometry" id="id10">
              <path d="M54.54,38.47 L 56.23 38.47 56.23 14.79 54.54 14.79 z" />
            </g>
            <g class="geometry" id="id12">
              <path d="M57.91,38.47 L 59.59 38.47 59.59 13.64 57.91 13.64 z" />
            </g>
            <g class="geometry" id="id14">
              <path d="M61.27,38.47 L 62.95 38.47 62.95 10.25 61.27 10.25 z" />
            </g>
            <g class="geometry" id="id16">
              <path d="M64.63,38.47 L 66.31 38.47 66.31 13.12 64.63 13.12 z" />
            </g>
            <g class="geometry" id="id18">
              <path d="M67.99,38.47 L 69.67 38.47 69.67 12.88 67.99 12.88 z" />
            </g>
            <g class="geometry" id="id20">
              <path d="M71.36,38.47 L 73.04 38.47 73.04 17.07 71.36 17.07 z" />
            </g>
            <g class="geometry" id="id22">
              <path d="M74.72,38.47 L 76.4 38.47 76.4 17.98 74.72 17.98 z" />
            </g>
            <g class="geometry" id="id24">
              <path d="M78.08,38.47 L 79.76 38.47 79.76 22.84 78.08 22.84 z" />
            </g>
            <g class="geometry" id="id26">
              <path d="M81.44,38.47 L 83.12 38.47 83.12 28.44 81.44 28.44 z" />
            </g>
            <g class="geometry" id="id28">
              <path d="M84.81,38.47 L 86.49 38.47 86.49 37.09 84.81 37.09 z" />
            </g>
          </g>
        </g>
      </g>
      <g clip-path="url(#clippath3)">
      </g>
    </g>
  </g>
</g>
<defs>
<clipPath id="clippath1">
  <path d="M27.88,5 L 95 5 95 39.44 27.88 39.44" />
</clipPath
><clipPath id="clippath2">
  <path d="M27.88,5 L 95 5 95 39.44 27.88 39.44" />
</clipPath
><clipPath id="clippath3">
  <path d="M27.88,5 L 95 5 95 39.44 27.88 39.44" />
</clipPath
></defs>
</svg>
