<?xml version="1.0" encoding="UTF-8"?>
<svg xmlns="http://www.w3.org/2000/svg" xmlns:xlink="http://www.w3.org/1999/xlink" version="1.1" width="100mm" height="60mm" viewBox="0 0 100 60" style="stroke:black;fill:black" stroke-width="0.5">
<g font-family="Helvetic,Arial,sans" stroke-width="0.3" font-size="3.88" stroke="none" fill="#000000">
  <g class="plotroot xscalable">
    <g font-family="'PT Sans','Helvetica Neue','Helvetica',sans-serif" font-size="3.18" stroke="none" class="guide ylabels" fill="#4C404B">
      <text x="26.88" y="30.34" text-anchor="end" style="dominant-baseline:central">5.0×10<tspan style="dominant-baseline:inherit" dy="-1ex">4</tspan></text>
      <text x="26.88" y="14.1" text-anchor="end" style="dominant-baseline:central">1.5×10<tspan style="dominant-baseline:inherit" dy="-1ex">5</tspan></text>
      <text x="26.88" y="5.97" text-anchor="end" style="dominant-baseline:central">2.0×10<tspan style="dominant-baseline:inherit" dy="-1ex">5</tspan></text>
      <text x="26.88" y="22.22" text-anchor="end" style="dominant-baseline:central">1.0×10<tspan style="dominant-baseline:inherit" dy="-1ex">5</tspan></text>
      <text x="26.88" y="38.47" text-anchor="end" style="dominant-baseline:central">0</text>
    </g>
    <g font-family="'PT Sans','Helvetica Neue','Helvetica',sans-serif" font-size="3.18" stroke="none" class="guide xlabels" fill="#4C404B">
      <text x="80.44" y="44.74" text-anchor="middle">1.0</text>
      <text x="67.77" y="44.74" text-anchor="middle">0.5</text>
      <text x="29.78" y="44.74" text-anchor="middle">-1.0</text>
      <text x="42.44" y="44.74" text-anchor="middle">-0.5</text>
      <text x="55.11" y="44.74" text-anchor="middle">0.0</text>
      <text x="93.1" y="44.74" text-anchor="middle">1.5</text>
    </g>
    <g font-family="'PT Sans','Helvetica Neue','Helvetica',sans-serif" font-size="3.88" stroke="none" fill="#362A35">
      <text x="61.44" y="53" text-anchor="middle">x</text>
    </g>
    <g>
      <g clip-path="url(#clippath1)">
        <g stroke="#F1F1F5" class="guide background" fill="#FAFAFA" opacity="1">
          <path d="M27.88,5 L 95 5 95 39.44 27.88 39.44 z" />
        </g>
        <g stroke-width="0.2" stroke="#F0F0F3" class="guide ygridlines xfixed">
          <path d="M27.88,79.08 L 95 79.08" />
          <path d="M27.88,5.97 L 95 5.97" />
          <path d="M27.88,46.59 L 95 46.59" />
          <path d="M27.88,54.71 L 95 54.71" />
          <path d="M27.88,62.83 L 95 62.83" />
          <path d="M27.88,-10.27 L 95 -10.27" />
          <path d="M27.88,-26.52 L 95 -26.52" />
          <path d="M27.88,-34.64 L 95 -34.64" />
          <path d="M27.88,-2.15 L 95 -2.15" />
          <path d="M27.88,38.47 L 95 38.47" />
          <path d="M27.88,-18.39 L 95 -18.39" />
          <path d="M27.88,22.22 L 95 22.22" />
          <path d="M27.88,70.96 L 95 70.96" />
          <path d="M27.88,14.1 L 95 14.1" />
          <path d="M27.88,30.34 L 95 30.34" />
        </g>
        <g stroke-width="0.2" stroke="#F0F0F3" class="guide xgridlines yfixed">
          <path d="M17.12,5 L 17.12 39.44" />
          <path d="M4.45,5 L 4.45 39.44" />
          <path d="M131.09,5 L 131.09 39.44" />
          <path d="M29.78,5 L 29.78 39.44" />
          <path d="M156.42,5 L 156.42 39.44" />
          <path d="M42.44,5 L 42.44 39.44" />
          <path d="M-20.88,5 L -20.88 39.44" />
          <path d="M169.09,5 L 169.09 39.44" />
          <path d="M105.76,5 L 105.76 39.44" />
          <path d="M93.1,5 L 93.1 39.44" />
          <path d="M55.11,5 L 55.11 39.44" />
          <path d="M143.76,5 L 143.76 39.44" />
          <path d="M-8.21,5 L -8.21 39.44" />
          <path d="M-33.54,5 L -33.54 39.44" />
          <path d="M67.77,5 L 67.77 39.44" />
          <path d="M118.43,5 L 118.43 39.44" />
          <path d="M-46.21,5 L -46.21 39.44" />
          <path d="M80.44,5 L 80.44 39.44" />
        </g>
      </g>
      <g clip-path="url(#clippath2)">
        <g class="plotpanel">
          <g stroke="none" fill="#00BFFF" shape-rendering="crispEdges">
            <g class="geometry" id="id59">
              <path d="M80.79,38.47 L 82.47 38.47 82.47 38.36 80.79 38.36 z" />
            </g>
            <g class="geometry" id="id57">
              <path d="M77.44,38.47 L 79.12 38.47 79.12 38.29 77.44 38.29 z" />
            </g>
            <g class="geometry" id="id55">
              <path d="M74.09,38.47 L 75.76 38.47 75.76 38.16 74.09 38.16 z" />
            </g>
            <g class="geometry" id="id53">
              <path d="M70.74,38.47 L 72.41 38.47 72.41 37.6 70.74 37.6 z" />
            </g>
            <g class="geometry" id="id51">
              <path d="M67.38,38.47 L 69.06 38.47 69.06 28.11 67.38 28.11 z" />
            </g>
            <g class="geometry" id="id49">
              <path d="M64.03,38.47 L 65.71 38.47 65.71 12.37 64.03 12.37 z" />
            </g>
            <g class="geometry" id="id47">
              <path d="M60.68,38.47 L 62.36 38.47 62.36 12.67 60.68 12.67 z" />
            </g>
            <g class="geometry" id="id45">
              <path d="M57.33,38.47 L 59 38.47 59 11.62 57.33 11.62 z" />
            </g>
            <g class="geometry" id="id43">
              <path d="M53.97,38.47 L 55.65 38.47 55.65 10.68 53.97 10.68 z" />
            </g>
            <g class="geometry" id="id41">
              <path d="M50.62,38.47 L 52.3 38.47 52.3 12.76 50.62 12.76 z" />
            </g>
            <g class="geometry" id="id39">
              <path d="M47.27,38.47 L 48.95 38.47 48.95 11.43 47.27 11.43 z" />
            </g>
            <g class="geometry" id="id37">
              <path d="M43.92,38.47 L 45.59 38.47 45.59 13.61 43.92 13.61 z" />
            </g>
            <g class="geometry" id="id35">
              <path d="M40.57,38.47 L 42.24 38.47 42.24 34.7 40.57 34.7 z" />
            </g>
            <g class="geometry" id="id33">
              <path d="M37.21,38.47 L 38.89 38.47 38.89 38.01 37.21 38.01 z" />
            </g>
            <g class="geometry" id="id31">
              <path d="M33.86,38.47 L 35.54 38.47 35.54 38.33 33.86 38.33 z" />
            </g>
            <g class="geometry" id="id30">
              <path d="M32.19,38.47 L 33.86 38.47 33.86 38.39 32.19 38.39 z" />
            </g>
            <g class="geometry" id="id32">
              <path d="M35.54,38.47 L 37.21 38.47 37.21 38.23 35.54 38.23 z" />
            </g>
            <g class="geometry" id="id34">
              <path d="M38.89,38.47 L 40.57 38.47 40.57 37.7 38.89 37.7 z" />
            </g>
            <g class="geometry" id="id36">
              <path d="M42.24,38.47 L 43.92 38.47 43.92 16.67 42.24 16.67 z" />
            </g>
            <g class="geometry" id="id38">
              <path d="M45.59,38.47 L 47.27 38.47 47.27 12.39 45.59 12.39 z" />
            </g>
            <g class="geometry" id="id40">
              <path d="M48.95,38.47 L 50.62 38.47 50.62 10.56 48.95 10.56 z" />
            </g>
            <g class="geometry" id="id42">
              <path d="M52.3,38.47 L 53.97 38.47 53.97 12.71 52.3 12.71 z" />
            </g>
            <g class="geometry" id="id44">
              <path d="M55.65,38.47 L 57.33 38.47 57.33 12.42 55.65 12.42 z" />
            </g>
            <g class="geometry" id="id46">
              <path d="M59,38.47 L 60.68 38.47 60.68 12.72 59 12.72 z" />
            </g>
            <g class="geometry" id="id48">
              <path d="M62.36,38.47 L 64.03 38.47 64.03 12.34 62.36 12.34 z" />
            </g>
            <g class="geometry" id="id50">
              <path d="M65.71,38.47 L 67.38 38.47 67.38 15.04 65.71 15.04 z" />
            </g>
            <g class="geometry" id="id52">
              <path d="M69.06,38.47 L 70.74 38.47 70.74 37.49 69.06 37.49 z" />
            </g>
            <g class="geometry" id="id54">
              <path d="M72.41,38.47 L 74.09 38.47 74.09 37.89 72.41 37.89 z" />
            </g>
            <g class="geometry" id="id56">
              <path d="M75.76,38.47 L 77.44 38.47 77.44 38.26 75.76 38.26 z" />
            </g>
            <g class="geometry" id="id58">
              <path d="M79.12,38.47 L 80.79 38.47 80.79 38.3 79.12 38.3 z" />
            </g>
          </g>
        </g>
      </g>
      <g clip-path="url(#clippath3)">
      </g>
    </g>
  </g>
</g>
<defs>
<clipPath id="clippath1">
  <path d="M27.88,5 L 95 5 95 39.44 27.88 39.44" />
</clipPath
><clipPath id="clippath2">
  <path d="M27.88,5 L 95 5 95 39.44 27.88 39.44" />
</clipPath
><clipPath id="clippath3">
  <path d="M27.88,5 L 95 5 95 39.44 27.88 39.44" />
</clipPath
></defs>
</svg>
